<svg width="1099" height="371" viewBox="0 0 1099 371" fill="none" xmlns="http://www.w3.org/2000/svg">
<g clip-path="url(#clip0_3840_3936)">
<path d="M1011.66 159.98H820.75V170.99C820.75 191.24 810.81 201.36 790.96 201.36H725.6V170.99H778.42C785.59 170.99 789.25 167.48 789.25 160.49H750.23C733.82 160.49 725.6 152.94 725.6 137.8V92.43C725.6 77.2 733.87 69.65 750.35 69.65H796.03C812.51 69.65 820.76 77.2 820.76 92.43V129.74H842.7V69.46H873.54V129.74H901.5V69.46H932.36V129.74H960.93V69.46H991.75V129.74H1005.81C1014.81 129.74 1019.31 125.15 1019.31 116.1V0H1050.76V129.74C1050.76 149.89 1040.35 159.97 1019.61 159.97H1011.67L1011.66 159.98ZM789.25 122.48V107.34C789.25 102.47 786.49 100.03 781 100.03H764.97C759.34 100.03 756.53 102.47 756.53 107.34V122.48C756.53 127.54 759.34 130.07 764.97 130.07H781C786.48 130.07 789.25 127.54 789.25 122.48ZM699.16 42.19C699.16 46.45 697.66 50.16 694.68 53.2C691.66 56.2 688 57.65 683.69 57.65C679.38 57.65 675.86 56.1 672.96 53.06C670.01 50.01 668.51 46.4 668.51 42.19C668.51 37.98 670.01 34.31 672.96 31.27C675.87 28.22 679.5 26.72 683.69 26.72C687.88 26.72 691.66 28.17 694.68 31.22C697.66 34.17 699.16 37.83 699.16 42.19ZM663.91 42.19C663.91 46.41 662.41 50.06 659.41 53.06C656.36 56.11 652.8 57.65 648.56 57.65C644.32 57.65 640.76 56.1 637.71 53.06C634.71 50.06 633.26 46.4 633.26 42.19C633.26 37.98 634.71 34.27 637.71 31.27C640.76 28.22 644.36 26.72 648.56 26.72C652.76 26.72 656.36 28.22 659.41 31.27C662.46 34.32 663.91 37.92 663.91 42.19ZM713.03 158.9C713.03 179.29 705.91 200.8 691.61 215.05C677.38 229.3 660.02 236.42 639.58 236.42C619.14 236.42 601.8 229.29 587.55 215.05C574.82 202.35 567.77 187.11 566.39 169.54H597.4C598.45 178.63 602.6 186.84 609.87 194.1C618.35 202.68 628.15 206.94 639.19 206.94C650.23 206.94 660.61 202.81 668.98 194.42C677.32 186.17 681.54 172.11 681.54 160.58H642.78C626.21 160.58 617.92 153.03 617.92 137.89V92.61C617.92 77.38 626.22 69.78 642.74 69.78H688.23C704.73 69.78 713.05 77.37 713.05 92.66V158.89L713.03 158.9ZM681.53 122.76V107.48C681.53 102.6 678.81 100.12 673.47 100.12H657.49C652.15 100.12 649.43 102.6 649.43 107.48V122.76C649.43 127.68 652.15 130.21 657.49 130.21H673.47C678.81 130.21 681.53 127.68 681.53 122.76ZM1098.18 159.98H1067.34V0H1098.18V159.98Z" fill="black"/>
<path d="M229.13 170.99C229.13 191.24 219.19 201.36 199.36 201.36H134.02V170.99H186.8C194.02 170.99 197.65 167.48 197.65 160.49H158.65C142.22 160.49 134.02 152.94 134.02 137.8V92.43C134.02 77.2 142.27 69.65 158.77 69.65H204.42C220.89 69.65 229.12 77.2 229.12 92.43V129.74H244.68V69.74H275.52V129.74H300.92V92.24C300.92 77.01 309.1 69.46 325.53 69.46H370.74C387.22 69.46 395.47 77.01 395.47 92.24V129.74H412.53V69.46H482.65C499.15 69.46 507.4 77.01 507.4 92.19V129.74H509.65C518.67 129.74 523.2 125.15 523.2 116.1V0H554.63V129.74C554.63 149.05 545.07 159.13 526.02 159.97H229.13V170.98V170.99ZM197.65 122.48V107.34C197.65 102.47 194.86 100.03 189.38 100.03H173.35C167.77 100.03 164.96 102.47 164.96 107.34V122.48C164.96 127.54 167.77 130.07 173.35 130.07H189.38C194.86 130.07 197.65 127.54 197.65 122.48ZM294.58 41.95C294.58 46.17 293.1 49.82 290.15 52.87C287.1 55.87 283.47 57.37 279.18 57.37C274.89 57.37 271.38 55.82 268.42 52.78C265.49 49.73 264.04 46.17 264.04 41.95C264.04 37.73 265.49 34.08 268.42 31.08C271.37 28.03 274.96 26.49 279.18 26.49C283.4 26.49 287.1 28.04 290.15 30.99C293.1 34.04 294.58 37.64 294.58 41.96M259.1 41.96C259.1 46.18 257.65 49.74 254.65 52.79C251.63 55.84 248.09 57.38 243.85 57.38C239.61 57.38 236.05 55.83 233.05 52.79C230.05 49.74 228.57 46.18 228.57 41.96C228.57 37.74 230.05 34.09 233.05 31.09C236.05 28.04 239.66 26.5 243.85 26.5C248.04 26.5 251.63 28.05 254.65 31.09C257.65 34.09 259.1 37.7 259.1 41.96ZM363.46 41.3C363.46 45.52 361.91 49.13 358.91 52.22C355.86 55.27 352.28 56.81 348.03 56.81C343.78 56.81 340.2 55.26 337.2 52.22C334.13 49.13 332.61 45.52 332.61 41.3C332.61 37.08 334.13 33.43 337.2 30.47C340.2 27.47 343.81 25.92 348.03 25.92C352.25 25.92 355.86 27.47 358.91 30.47C361.91 33.42 363.46 37.08 363.46 41.3ZM364.07 122.25V107.06C364.07 102.19 361.35 99.75 356.01 99.75H340.07C334.73 99.75 332.05 102.19 332.05 107.06V122.25C332.05 127.17 334.72 129.75 340.07 129.75H356.01C361.35 129.75 364.07 127.17 364.07 122.25ZM475.72 122.25V107.06C475.72 102.19 473 99.75 467.66 99.75H444.27V129.75H467.66C473 129.75 475.72 127.17 475.72 122.25ZM596.62 159.98H565.8V0H596.62V159.98Z" fill="black"/>
<path d="M371.34 307.25C371.34 329 388.57 344.28 410.06 344.28C431.55 344.28 448.87 329 448.87 307.25C448.87 285.5 431.69 270.27 410.06 270.27C388.43 270.27 371.34 285.64 371.34 307.25ZM608.37 342.59H625.85V310.16C625.85 306.83 626.27 303.64 627.23 300.74C629.72 292.3 636.77 286.35 646.22 286.35C655.1 286.35 657.3 292.16 657.3 300.74V333.18C657.3 339.83 660.09 342.6 666.72 342.6H683.5V327.79H677.97C676 327.79 674.92 326.67 674.92 324.74V297.13C674.92 278.43 665.92 270.27 650.24 270.27C635.97 270.27 628.33 278.94 625.28 284.94H625.02C625.02 284.94 625.28 283.44 625.28 281.89V279.83C625.28 274.86 622.26 271.91 616 271.91H599.78V286.86H605.31C607.28 286.86 608.36 287.84 608.36 289.91V342.59H608.37ZM530.66 307.25C530.66 327.36 545.24 344.28 568.67 344.28C586.27 344.28 597.07 333.59 597.07 333.59L589.71 321.4C589.71 321.4 581.27 329.27 569.88 329.27C559.19 329.27 550.08 322.76 548.69 310.29H597.48C597.48 310.29 597.9 305.88 597.9 303.77C597.9 285.07 586.79 270.26 566.57 270.26C545.31 270.26 530.64 285.49 530.64 307.24M549.22 298.1C551.17 289.19 557.54 283.8 566.56 283.8C573.75 283.8 579.57 289.61 579.85 298.1H549.22ZM458.22 370.33H475.71V341.08C475.71 337.47 475.43 334.94 475.43 334.94H475.71C475.71 334.94 481.92 344.27 495.91 344.27C514.52 344.27 528.34 329.69 528.34 307.24C528.34 284.79 516.01 270.26 496.89 270.26C480.39 270.26 474.41 281.46 474.41 281.46H474.15V278.69C474.15 274.85 471.81 271.89 465.27 271.89H449.59V286.84H455.14C457.09 286.84 458.21 287.82 458.21 289.89V370.32L458.22 370.33ZM475.28 307.66C475.28 292 483.88 285.35 493 285.35C503.41 285.35 510.62 294.07 510.62 307.57C510.62 321.07 502.42 329.41 492.74 329.41C481.09 329.41 475.28 318.63 475.28 307.66ZM389.08 307.24C389.08 294.21 398.64 285.21 410.03 285.21C421.42 285.21 431.12 294.21 431.12 307.24C431.12 320.27 421.51 329.27 410.03 329.27C398.55 329.27 389.08 320.41 389.08 307.24Z" fill="black"/>
<path d="M901.88 307.25C901.88 329.14 914.07 344.28 933.19 344.28C948.47 344.28 954.42 334.25 954.42 334.25H954.7C954.7 334.25 954.42 336.78 954.42 340.39V370.34H972.02V289.91C972.02 287.85 973.17 286.86 975.09 286.86H980.64V271.91H965.1C958.73 271.91 956.1 274.58 956.1 278.14V280.62H955.82C955.82 280.62 949.96 270.26 933.91 270.26C915.21 270.26 901.87 284.79 901.87 307.24M682.88 331.61C682.88 331.61 692.86 344.26 712.27 344.26C727.67 344.26 739.48 335.96 739.48 322.61C739.48 299.03 701.86 301.28 701.86 290.22C701.86 286.05 706.15 283.8 712.4 283.8C716.29 283.8 721.28 285.49 721.28 288.77V292.29H736.82V284.93C736.82 273.4 721.54 270.26 711.98 270.26C697.31 270.26 684.53 276.73 684.53 290.88C684.53 313.76 721.82 313.61 721.82 323.6C721.82 328.33 717.69 330.54 712.26 330.54C700.21 330.54 691.21 320.13 691.21 320.13L682.87 331.61M742.16 307.24C742.16 328.99 759.31 344.27 780.83 344.27C802.35 344.27 819.64 328.99 819.64 307.24C819.64 285.49 802.44 270.26 780.83 270.26C759.22 270.26 742.16 285.63 742.16 307.24ZM759.88 307.24C759.88 294.21 769.44 285.21 780.83 285.21C792.22 285.21 801.9 294.21 801.9 307.24C801.9 320.27 792.34 329.27 780.83 329.27C769.32 329.27 759.88 320.41 759.88 307.24ZM821.94 307.24C821.94 328.99 839.14 344.27 860.61 344.27C882.08 344.27 899.42 328.99 899.42 307.24C899.42 285.49 882.27 270.26 860.61 270.26C838.95 270.26 821.94 285.63 821.94 307.24ZM839.66 307.24C839.66 294.21 849.24 285.21 860.61 285.21C871.98 285.21 881.7 294.21 881.7 307.24C881.7 320.27 872.12 329.27 860.61 329.27C849.1 329.27 839.66 320.41 839.66 307.24ZM937.2 329.41C926.84 329.41 919.62 320.69 919.62 307.24C919.62 293.79 927.8 285.35 937.36 285.35C949.15 285.35 954.98 296.13 954.98 307.15C954.98 322.76 946.33 329.41 937.19 329.41" fill="black"/>
<path d="M980.02 343.57H986.89V336.49H980.02V343.57ZM1051.55 343.57H1058.58V331.1C1058.58 329.84 1058.72 328.66 1059 327.54C1059.91 323.88 1062.28 320.98 1065.89 320.98C1069.26 320.98 1069.71 323.61 1069.71 326.65V343.57H1076.81V331.1C1076.81 329.74 1076.9 328.57 1077.23 327.45C1077.98 323.89 1080.51 320.98 1084.05 320.98C1087.33 320.98 1087.94 323.42 1087.94 326.65V339.82C1087.94 342.45 1089.09 343.57 1091.74 343.57H1098.42V337.67H1096.26C1095.46 337.67 1095.04 337.25 1095.04 336.4V325.29C1095.04 317.79 1091.62 314.46 1085.71 314.46C1081.21 314.46 1077.51 317.27 1076.01 320.32H1075.92C1074.65 316.52 1071.89 314.46 1067.6 314.46C1063.31 314.46 1059.73 317.6 1058.39 320.41H1058.27C1058.27 320.41 1058.34 319.8 1058.34 319.15V318.35C1058.34 316.33 1057.1 315.16 1054.59 315.16H1048.07V321.16H1050.32C1051.09 321.16 1051.54 321.58 1051.54 322.38V343.57M1016.62 329.37C1016.62 338.18 1023.51 344.28 1032.16 344.28C1040.81 344.28 1047.74 338.19 1047.74 329.37C1047.74 320.55 1040.85 314.47 1032.16 314.47C1023.47 314.47 1016.62 320.7 1016.62 329.37ZM1023.75 329.37C1023.75 324.17 1027.59 320.56 1032.16 320.56C1036.73 320.56 1040.62 324.17 1040.62 329.37C1040.62 334.57 1036.78 338.23 1032.16 338.23C1027.54 338.23 1023.75 334.67 1023.75 329.37ZM989.25 329.37C989.25 337.67 995.25 344.28 1004.62 344.28C1012.4 344.28 1016.62 339.13 1016.62 339.13L1013.67 334.26C1013.67 334.26 1010.08 338.1 1005.23 338.1C1000.68 338.1 996.37 335.15 996.37 329.34C996.37 324.19 999.89 320.48 1004.81 320.48C1006.55 320.48 1008.89 321.14 1008.89 322.73V324.28H1015.12V320.95C1015.12 316.03 1008.47 314.48 1004.81 314.48C995.06 314.48 989.25 321.37 989.25 329.38" fill="black"/>
<path d="M45.2 163.47C51.52 157.81 59.18 154.98 68.17 154.98H119.74V96.29C119.66 96.29 119.57 96.29 119.49 96.29V91.56C119.49 77.48 111.09 70.51 94.23 70.51C72.91 70.51 38.53 71.68 30.23 67.35C30.23 97.68 34.41 98.24 72.68 98.24C81.99 98.24 86.75 102.44 86.75 110.8V126.22H85.94C85.94 126.22 85.94 126.23 85.95 126.24H64.32C46.34 126.24 31.13 131.72 18.67 142.69C6.23 153.64 0 167.24 0 183.46C0 199.68 6.23 213.56 18.67 225.11C31.12 236.65 46.33 242.42 64.32 242.42H119.74V213.41H68.17C59.08 213.41 51.4 210.58 45.13 204.92C38.86 199.26 35.72 192.33 35.72 184.13C35.72 175.93 38.88 169.13 45.2 163.47Z" fill="black"/>
</g>
<defs>
<clipPath id="clip0_3840_3936">
<rect width="1098.42" height="370.34" fill="white"/>
</clipPath>
</defs>
</svg>
